<svg xmlns="http://www.w3.org/2000/svg" viewBox="0 0 1200 800" style="font-family:-apple-system,BlinkMacSystemFont,'Segoe UI',Roboto,Helvetica,Arial,sans-serif"><defs><filter id="shadow" width="140%" height="140%" x="-20%" y="-20%"><feGaussianBlur in="SourceAlpha" result="blur" stdDeviation="3"/><feOffset dx="2" dy="4" in="blur" result="offsetBlur"/><feComponentTransfer><feFuncA slope=".2" type="linear"/></feComponentTransfer><feMerge><feMergeNode/><feMergeNode in="SourceGraphic"/></feMerge></filter><linearGradient id="gradFrontend" x1="0%" x2="0%" y1="0%" y2="100%"><stop offset="0%" stop-color="#E3F2FD"/><stop offset="100%" stop-color="#BBDEFB"/></linearGradient><linearGradient id="gradBackend" x1="0%" x2="0%" y1="0%" y2="100%"><stop offset="0%" stop-color="#E8F5E9"/><stop offset="100%" stop-color="#C8E6C9"/></linearGradient><linearGradient id="gradAI" x1="0%" x2="0%" y1="0%" y2="100%"><stop offset="0%" stop-color="#F3E5F5"/><stop offset="100%" stop-color="#E1BEE7"/></linearGradient><linearGradient id="gradStorage" x1="0%" x2="0%" y1="0%" y2="100%"><stop offset="0%" stop-color="#FFF3E0"/><stop offset="100%" stop-color="#FFE0B2"/></linearGradient><marker id="arrow" markerHeight="10" markerUnits="strokeWidth" markerWidth="10" orient="auto" refX="9" refY="3"><path fill="#546E7A" d="M0,0 L0,6 L9,3 z"/></marker></defs><rect width="1200" height="800" fill="#f8f9fa"/><text x="600" y="50" fill="#263238" font-size="32" font-weight="700" letter-spacing="1" text-anchor="middle">LumenX Studio Architecture</text><text x="600" y="80" fill="#78909C" font-size="16" text-anchor="middle">High-Level System Design &amp; Data Flow</text><g filter="url(#shadow)"><rect width="320" height="600" x="50" y="120" fill="#fff" stroke="#90CAF9" stroke-width="1" rx="16"/><rect width="320" height="60" x="50" y="120" fill="url(#gradFrontend)" clip-path="inset(0 0 540 0)" rx="16"/><path stroke="#90CAF9" stroke-width="1" d="M50 180 L370 180"/><text x="210" y="160" fill="#1565C0" font-size="20" font-weight="600" text-anchor="middle">Frontend Layer</text><text x="210" y="200" fill="#546E7A" font-size="12" text-anchor="middle">Client (Browser / Electron)</text></g><g filter="url(#shadow)"><rect width="320" height="600" x="440" y="120" fill="#fff" stroke="#A5D6A7" stroke-width="1" rx="16"/><rect width="320" height="60" x="440" y="120" fill="url(#gradBackend)" clip-path="inset(0 0 540 0)" rx="16"/><path stroke="#A5D6A7" stroke-width="1" d="M440 180 L760 180"/><text x="600" y="160" fill="#2E7D32" font-size="20" font-weight="600" text-anchor="middle">Backend Layer</text><text x="600" y="200" fill="#546E7A" font-size="12" text-anchor="middle">Server (FastAPI)</text></g><g filter="url(#shadow)"><rect width="320" height="280" x="830" y="120" fill="#fff" stroke="#CE93D8" stroke-width="1" rx="16"/><rect width="320" height="60" x="830" y="120" fill="url(#gradAI)" clip-path="inset(0 0 220 0)" rx="16"/><path stroke="#CE93D8" stroke-width="1" d="M830 180 L1150 180"/><text x="990" y="160" fill="#6A1B9A" font-size="20" font-weight="600" text-anchor="middle">AI Cloud Services</text><text x="990" y="200" fill="#546E7A" font-size="12" text-anchor="middle">Alibaba Cloud DashScope</text></g><g filter="url(#shadow)"><rect width="320" height="280" x="830" y="440" fill="#fff" stroke="#FFCC80" stroke-width="1" rx="16"/><rect width="320" height="60" x="830" y="440" fill="url(#gradStorage)" clip-path="inset(0 0 220 0)" rx="16"/><path stroke="#FFCC80" stroke-width="1" d="M830 500 L1150 500"/><text x="990" y="480" fill="#EF6C00" font-size="20" font-weight="600" text-anchor="middle">Storage Layer</text><text x="990" y="520" fill="#546E7A" font-size="12" text-anchor="middle">Cloud OSS &amp; Local FS</text></g><g transform="translate(85, 230)"><rect width="250" height="70" fill="#F5F9FF" stroke="#E3F2FD" stroke-width="1" rx="8"/><text x="20" y="30" fill="#1E88E5" font-size="14" font-weight="600">Next.js App Router</text><text x="20" y="50" fill="#78909C" font-size="12">Pages, Layouts, Routing</text></g><g transform="translate(85, 320)"><rect width="250" height="70" fill="#F5F9FF" stroke="#E3F2FD" stroke-width="1" rx="8"/><text x="20" y="30" fill="#1E88E5" font-size="14" font-weight="600">Storyboard Editor</text><text x="20" y="50" fill="#78909C" font-size="12">Canvas (Three.js), D&amp;D</text></g><g transform="translate(85, 410)"><rect width="250" height="70" fill="#F5F9FF" stroke="#E3F2FD" stroke-width="1" rx="8"/><text x="20" y="30" fill="#1E88E5" font-size="14" font-weight="600">State Management</text><text x="20" y="50" fill="#78909C" font-size="12">Zustand Store</text></g><g transform="translate(85, 500)"><rect width="250" height="70" fill="#F5F9FF" stroke="#E3F2FD" stroke-width="1" rx="8"/><text x="20" y="30" fill="#1E88E5" font-size="14" font-weight="600">API Client</text><text x="20" y="50" fill="#78909C" font-size="12">Axios, Streaming</text></g><g transform="translate(475, 230)"><rect width="250" height="70" fill="#F1F8E9" stroke="#E8F5E9" stroke-width="1" rx="8"/><text x="20" y="30" fill="#43A047" font-size="14" font-weight="600">FastAPI Core</text><text x="20" y="50" fill="#78909C" font-size="12">REST API, WebSocket</text></g><g transform="translate(475, 320)"><rect width="250" height="70" fill="#F1F8E9" stroke="#E8F5E9" stroke-width="1" rx="8"/><text x="20" y="30" fill="#43A047" font-size="14" font-weight="600">Business Pipeline</text><text x="20" y="50" fill="#78909C" font-size="12">Orchestration, Task Queue</text></g><g transform="translate(475, 410)"><rect width="250" height="70" fill="#F1F8E9" stroke="#E8F5E9" stroke-width="1" rx="8"/><text x="20" y="30" fill="#43A047" font-size="14" font-weight="600">Media Processing</text><text x="20" y="50" fill="#78909C" font-size="12">FFmpeg Wrapper, PIL</text></g><g transform="translate(475, 500)"><rect width="250" height="70" fill="#F1F8E9" stroke="#E8F5E9" stroke-width="1" rx="8"/><text x="20" y="30" fill="#43A047" font-size="14" font-weight="600">Models Adapter</text><text x="20" y="50" fill="#78909C" font-size="12">Unified AI Interface</text></g><g transform="translate(865, 230)"><rect width="250" height="60" fill="#F3E5F5" stroke="#F3E5F5" stroke-width="1" rx="8"/><text x="20" y="25" fill="#8E24AA" font-size="14" font-weight="600">Qwen (通义千问)</text><text x="20" y="45" fill="#78909C" font-size="12">Extract, Polish</text></g><g transform="translate(865, 310)"><rect width="250" height="60" fill="#F3E5F5" stroke="#F3E5F5" stroke-width="1" rx="8"/><text x="20" y="25" fill="#8E24AA" font-size="14" font-weight="600">Wanx (通义万相)</text><text x="20" y="45" fill="#78909C" font-size="12">T2I, I2V, R2V</text></g><g transform="translate(865, 550)"><rect width="250" height="60" fill="#FFF3E0" stroke="#FFF3E0" stroke-width="1" rx="8"/><text x="20" y="25" fill="#FB8C00" font-size="14" font-weight="600">Aliyun OSS (Private)</text><text x="20" y="45" fill="#78909C" font-size="12">Cloud Assets Storage</text></g><g transform="translate(865, 630)"><rect width="250" height="60" fill="#FFF3E0" stroke="#FFF3E0" stroke-width="1" rx="8"/><text x="20" y="25" fill="#FB8C00" font-size="14" font-weight="600">Local Configuration</text><text x="20" y="45" fill="#78909C" font-size="12">User Settings, Caches</text></g><path fill="none" stroke="#B0BEC5" stroke-dasharray="5 5" stroke-width="2" marker-end="url(#arrow)" d="M335 535 C 400 535, 400 265, 475 265"/><rect width="60" height="24" x="375" y="390" fill="#ECEFF1" stroke="#CFD8DC" rx="4"/><text x="405" y="407" fill="#546E7A" font-size="10" text-anchor="middle">HTTP/WS</text><path fill="none" stroke="#B0BEC5" stroke-width="2" marker-end="url(#arrow)" d="M725 265 C 790 265, 790 260, 865 260"/><path fill="none" stroke="#B0BEC5" stroke-width="2" marker-end="url(#arrow)" d="M725 265 C 790 265, 790 340, 865 340"/><path fill="none" stroke="#B0BEC5" stroke-width="2" marker-end="url(#arrow)" d="M725 445 C 790 445, 790 580, 865 580"/><path fill="none" stroke="#B0BEC5" stroke-width="2" marker-end="url(#arrow)" d="M725 445 C 790 445, 790 660, 865 660"/></svg>